<svg width="40" height="40" viewBox="0 0 40 40" fill="none" xmlns="http://www.w3.org/2000/svg">
<rect width="40" height="40" rx="8" fill="#F5F3F3"/>
<rect x="0.5" y="0.5" width="39" height="39" rx="7.5" stroke="black" stroke-opacity="0.05"/>
<path d="M33.7296 23.3262L29.8481 20.2756C29.6105 20.0894 29.6105 19.7837 29.8481 19.597L33.7298 16.5472C33.9681 16.3606 34.0677 16.0454 33.9513 15.8471C33.8348 15.6494 33.5093 15.579 33.2289 15.6907L28.6133 17.5291C28.3327 17.642 28.0683 17.4882 28.0262 17.1884L27.3321 12.2609C27.2893 11.9613 27.064 11.7161 26.8307 11.7161C26.5985 11.7161 26.3734 11.9613 26.3317 12.2607L25.6372 17.1886C25.5948 17.4884 25.3307 17.6418 25.0498 17.5293L20.5105 15.7214C20.229 15.6093 19.7704 15.6093 19.4896 15.7214L14.9495 17.5293C14.6688 17.6418 14.4044 17.4884 14.3623 17.1886L13.6687 12.2607C13.6259 11.9613 13.401 11.7161 13.1686 11.7161C12.9355 11.7161 12.71 11.9613 12.6681 12.2607L11.9737 17.1886C11.9316 17.4884 11.6674 17.6418 11.3866 17.5293L6.77114 15.6913C6.49055 15.579 6.16565 15.6497 6.04909 15.8473C5.93272 16.0458 6.03196 16.3612 6.26954 16.5474L10.1516 19.5972C10.3894 19.7839 10.3894 20.0896 10.1516 20.276L6.26954 23.3262C6.03122 23.5127 5.93254 23.8468 6.04872 24.0679C6.16546 24.2895 6.49036 24.3785 6.77058 24.2661L11.3447 22.4291C11.6259 22.3168 11.8873 22.4697 11.9265 22.7695L12.5864 27.74C12.6263 28.0392 12.8877 28.2842 13.1673 28.2842C13.4466 28.2842 13.7082 28.0394 13.7482 27.74L14.4092 22.7695C14.4483 22.4697 14.7108 22.317 14.9905 22.4291L19.4896 24.2348C19.77 24.3476 20.2288 24.3476 20.5094 24.2348L25.0077 22.4291C25.2877 22.3168 25.5495 22.4697 25.5895 22.7695L26.2505 27.74C26.29 28.0392 26.5516 28.2842 26.8305 28.2842C27.1102 28.2842 27.3718 28.0394 27.4114 27.74L28.0724 22.7695C28.1126 22.4697 28.374 22.317 28.6541 22.4291L33.2287 24.2661C33.508 24.3785 33.8339 24.2893 33.9504 24.0681C34.0672 23.8473 33.9677 23.5128 33.7296 23.3262ZM23.8541 20.3144L20.4356 22.9462C20.1964 23.1305 19.8039 23.1305 19.5654 22.9462L16.1458 20.3144C15.9067 20.13 15.9049 19.8265 16.1421 19.6394L19.568 16.941C19.8052 16.7538 20.1941 16.7538 20.4315 16.941L23.8574 19.6394C24.0952 19.8264 24.0937 20.1297 23.8541 20.3144Z" fill="black"/>
</svg>
