<svg width="40" height="40" viewBox="0 0 40 40" fill="none" xmlns="http://www.w3.org/2000/svg">
<rect width="40" height="40" rx="8" fill="#F5F3F3"/>
<rect x="0.5" y="0.5" width="39" height="39" rx="7.5" stroke="black" stroke-opacity="0.05"/>
<path fill-rule="evenodd" clip-rule="evenodd" d="M20 8.29614C13.37 8.29614 8 13.6661 8 20.2961C8 25.6061 11.435 30.0911 16.205 31.6811C16.805 31.7861 17.03 31.4261 17.03 31.1111C17.03 30.8261 17.015 29.8811 17.015 28.8761C14 29.4311 13.22 28.1411 12.98 27.4661C12.845 27.1211 12.26 26.0561 11.75 25.7711C11.33 25.5461 10.73 24.9911 11.735 24.9761C12.68 24.9611 13.355 25.8461 13.58 26.2061C14.66 28.0211 16.385 27.5111 17.075 27.1961C17.18 26.4161 17.495 25.8911 17.84 25.5911C15.17 25.2911 12.38 24.2561 12.38 19.6661C12.38 18.3611 12.845 17.2811 13.61 16.4411C13.49 16.1411 13.07 14.9111 13.73 13.2611C13.73 13.2611 14.735 12.9461 17.03 14.4911C17.99 14.2211 19.01 14.0861 20.03 14.0861C21.05 14.0861 22.07 14.2211 23.03 14.4911C25.325 12.9311 26.33 13.2611 26.33 13.2611C26.99 14.9111 26.57 16.1411 26.45 16.4411C27.215 17.2811 27.68 18.3461 27.68 19.6661C27.68 24.2711 24.875 25.2911 22.205 25.5911C22.64 25.9661 23.015 26.6861 23.015 27.8111C23.015 29.4161 23 30.7061 23 31.1111C23 31.4261 23.225 31.8011 23.825 31.6811C26.2072 30.8769 28.2773 29.3459 29.7438 27.3035C31.2103 25.2612 31.9994 22.8104 32 20.2961C32 13.6661 26.63 8.29614 20 8.29614Z" fill="black"/>
</svg>
