<svg width="40" height="40" viewBox="0 0 40 40" fill="none" xmlns="http://www.w3.org/2000/svg">
<rect width="40" height="40" rx="8" fill="#F5F3F3"/>
<rect x="0.5" y="0.5" width="39" height="39" rx="7.5" stroke="black" stroke-opacity="0.05"/>
<path d="M20.0009 7.99976C16.7418 7.99976 16.3328 8.01401 15.0528 8.07226C13.7753 8.13076 12.9033 8.33301 12.1403 8.62977C11.351 8.93627 10.6815 9.34627 10.0145 10.0135C9.34701 10.6805 8.93701 11.35 8.62951 12.1391C8.332 12.9024 8.1295 13.7746 8.072 15.0516C8.015 16.3316 8 16.7409 8 19.9999C8 23.259 8.0145 23.6667 8.0725 24.9467C8.13125 26.2242 8.3335 27.0962 8.63001 27.8593C8.93676 28.6485 9.34676 29.318 10.014 29.985C10.6808 30.6525 11.3503 31.0635 12.139 31.37C12.9026 31.6668 13.7748 31.8691 15.0521 31.9276C16.3321 31.9858 16.7408 32.0001 19.9996 32.0001C23.2589 32.0001 23.6667 31.9858 24.9467 31.9276C26.2242 31.8691 27.0972 31.6668 27.8607 31.37C28.6497 31.0635 29.3182 30.6525 29.985 29.985C30.6525 29.318 31.0625 28.6485 31.37 27.8595C31.665 27.0963 31.8675 26.224 31.9275 24.947C31.985 23.667 32 23.259 32 19.9999C32 16.7409 31.985 16.3319 31.9275 15.0519C31.8675 13.7744 31.665 12.9024 31.37 12.1393C31.0625 11.35 30.6525 10.6805 29.985 10.0135C29.3175 9.34602 28.65 8.93602 27.86 8.62977C27.0949 8.33301 26.2224 8.13076 24.9449 8.07226C23.6649 8.01401 23.2574 7.99976 19.9974 7.99976H20.0009ZM18.9244 10.1623C19.2439 10.1618 19.6004 10.1623 20.0009 10.1623C23.2049 10.1623 23.5847 10.1738 24.8499 10.2313C26.0199 10.2848 26.6549 10.4803 27.0779 10.6445C27.638 10.862 28.0372 11.122 28.457 11.542C28.877 11.962 29.137 12.3621 29.355 12.9221C29.5192 13.3446 29.715 13.9796 29.7682 15.1496C29.8257 16.4146 29.8382 16.7946 29.8382 19.9972C29.8382 23.1997 29.8257 23.5797 29.7682 24.8447C29.7147 26.0147 29.5192 26.6497 29.355 27.0723C29.1375 27.6323 28.877 28.031 28.457 28.4508C28.037 28.8708 27.6382 29.1308 27.0779 29.3483C26.6554 29.5133 26.0199 29.7083 24.8499 29.7618C23.5849 29.8193 23.2049 29.8318 20.0009 29.8318C16.7966 29.8318 16.4168 29.8193 15.1518 29.7618C13.9818 29.7078 13.3468 29.5123 12.9236 29.348C12.3635 29.1305 11.9635 28.8705 11.5435 28.4505C11.1235 28.0305 10.8635 27.6315 10.6455 27.0713C10.4813 26.6487 10.2855 26.0137 10.2323 24.8437C10.1748 23.5787 10.1633 23.1987 10.1633 19.9942C10.1633 16.7896 10.1748 16.4116 10.2323 15.1466C10.2858 13.9766 10.4813 13.3416 10.6455 12.9186C10.863 12.3586 11.1235 11.9585 11.5435 11.5385C11.9635 11.1185 12.3635 10.8585 12.9236 10.6405C13.3466 10.4755 13.9818 10.2805 15.1518 10.2268C16.2588 10.1768 16.6878 10.1618 18.9244 10.1593V10.1623ZM26.4064 12.1548C26.1216 12.1548 25.8432 12.2393 25.6064 12.3976C25.3695 12.5558 25.185 12.7807 25.076 13.0439C24.967 13.3071 24.9385 13.5966 24.9941 13.876C25.0497 14.1553 25.1869 14.4119 25.3884 14.6133C25.5898 14.8146 25.8464 14.9518 26.1258 15.0073C26.4052 15.0628 26.6947 15.0342 26.9579 14.9251C27.221 14.816 27.4458 14.6314 27.604 14.3945C27.7622 14.1576 27.8466 13.8792 27.8465 13.5944C27.8465 12.7994 27.2014 12.1548 26.4064 12.1548ZM20.0009 13.8374C16.5976 13.8374 13.8383 16.5966 13.8383 19.9999C13.8383 23.4032 16.5976 26.1612 20.0009 26.1612C23.4042 26.1612 26.1627 23.4032 26.1627 19.9999C26.1627 16.5966 23.4042 13.8374 20.0009 13.8374ZM20.0009 15.9999C22.2099 15.9999 24.0009 17.7907 24.0009 19.9999C24.0009 22.2089 22.2099 24 20.0009 24C17.7916 24 16.0008 22.2089 16.0008 19.9999C16.0008 17.7907 17.7916 15.9999 20.0009 15.9999Z" fill="black"/>
</svg>
